<svg version="1.1" xmlns="http://www.w3.org/2000/svg" width="1024" height="1024" viewBox="520 550 260 260">
    
    <!-- Design remains identical, just centered in a square high-res canvas -->
    <g transform="translate(0, 288)">
        <!-- Upper part of S -->
        <path d="M0 0 C3.6887854 1.43903167 7.2840257 3.0199356 10.875 4.6875 C12.01606201 5.21698242 13.15712402 5.74646484 14.33276367 6.29199219 C15.55524154 6.86118692 16.77765233 7.43052572 18 8 C18.92542099 8.43052673 18.92542099 8.43052673 19.86953735 8.86975098 C28.3217879 12.80237918 36.76433738 16.75538795 45.1875 20.75 C46.07115234 21.16765625 46.95480469 21.5853125 47.86523438 22.015625 C49.06696289 22.58796875 49.06696289 22.58796875 50.29296875 23.171875 C50.9893042 23.5028418 51.68563965 23.83380859 52.40307617 24.17480469 C54 25 54 25 55 26 C56.01843832 34.57331081 57.1553968 45.32256674 53.484375 53.2890625 C51.1553673 55.79921524 48.66520421 57.84982849 46 60 C43.63941551 62.39538252 41.38935626 64.88892616 39.125 67.375 C37.91453925 68.67223504 36.7023098 69.96782205 35.48828125 71.26171875 C30.619079 76.47159216 25.8105663 81.73600771 21 87 C20.06410739 88.01981152 19.12790516 89.03933898 18.19140625 90.05859375 C8.34285112 100.23436509 8.34285112 100.23436509 -0.52609253 111.19108486 C-3.23514782 114.79218706 -5.39557604 117.5338116 -9.82154846 118.81984138 C-13.22264916 119.10651024 -16.52148439 119.11402805 -19.93359375 119.02172852 C-21.85192268 119.02369987 -21.85192268 119.02369987 -23.80900574 119.02571106 C-27.29511547 119.02828043 -30.77840521 118.97559493 -34.26386261 118.91254544 C-37.91387907 118.85605782 -41.56396934 118.85097945 -45.21435547 118.84031677 C-52.11728081 118.81240849 -59.01891433 118.73864552 -65.92127228 118.64817137 C-73.78327742 118.54736854 -81.6453462 118.49803952 -89.5078373 118.45291245 C-105.67264624 118.35898689 -121.83615795 118.20081545 -138 118 C-136.0921126 113.94752004 -133.45237093 110.69334028 -130.625 107.25 C-126.22820444 101.82559062 -121.93138652 96.342317 -117.75 90.75 C-117.29189941 90.13801758 -116.83379883 89.52603516 -116.36181641 88.89550781 C-115.90726074 88.28545898 -115.45270508 87.67541016 -114.984375 87.046875 C-114.30094025 86.1643103 -114.30094025 86.1643103 -113.60369873 85.26391602 C-111.91434929 82.98262648 -111.91434929 82.98262648 -110.5350647 80.23040771 C-107.84364557 75.58784648 -105.86903235 72.50152872 -100.53149414 71.0692749 C-96.95895597 70.85818829 -93.51000846 70.82425434 -89.9405098 70.98799133 C-87.55778125 71.09572963 -85.18268423 71.1328124 -82.79769897 71.15270996 C-76.88280094 71.21628812 -70.97268463 71.39857915 -65.06036377 71.57769775 C-60.05542279 71.72479295 -55.053512 71.8258009 -50.04655075 71.86750793 C-47.71311695 71.90545232 -45.38889094 72.00939665 -43.05776978 72.11657715 C-37.20749397 72.2554325 -32.71666166 72.29788907 -27.84066772 68.6113739 C-25.24555756 65.96417638 -23.10101321 63.05298763 -21 60 C-20.09310014 58.83831542 -19.18469917 57.67779745 -18.2734375 56.51953125 C-17.64695312 55.62621094 -17.02046875 54.73289062 -16.375 53.8125 C-15.72273437 52.89082031 -15.07046875 51.96914063 -14.3984375 51.01953125 C-13.93695312 50.35308594 -13.47546875 49.68664062 -13 49 C-13.53367187 48.84144531 -14.06734375 48.68289063 -14.6171875 48.51953125 C-20.74868303 46.59946085 -26.32459514 43.99765643 -32 41 C-30.36829395 37.1465925 -27.78499945 34.23986382 -25.0625 31.125 C-19.60172936 24.77904216 -14.4229957 18.24326094 -9.28125 11.63818359 C-6.22431615 7.72964203 -3.10946377 3.86678302 0 0 Z" fill="#8B0000" transform="translate(676,376)"/>
        <!-- Lower part of S -->
        <path d="M0 0 C1.11616699 -0.00549866 2.23233398 -0.01099731 3.38232422 -0.0166626 C4.6022406 -0.00228149 5.82215698 0.01209961 7.07904053 0.0269165 C8.36709595 0.0263324 9.65515137 0.02574829 10.98223877 0.02514648 C14.51103845 0.02399894 18.03929414 0.04751403 21.56796741 0.07544231 C25.2568314 0.1004496 28.94570789 0.10279742 32.63464355 0.10754395 C39.61865936 0.11997576 46.60242467 0.15279995 53.58633018 0.1929419 C61.53786864 0.23765337 69.48941908 0.25964505 77.44105196 0.27972364 C93.79676509 0.32153257 110.15222631 0.39188838 126.50775146 0.48101807 C125.13182679 3.30388789 123.68676869 5.70595283 121.74212646 8.17633057 C121.18831299 8.88370361 120.63449951 9.59107666 120.06390381 10.31988525 C119.46787354 11.07430908 118.87184326 11.82873291 118.25775146 12.60601807 C116.99470713 14.21797882 115.73168702 15.82995855 114.46868896 17.44195557 C113.81739014 18.27050049 113.16609131 19.09904541 112.49505615 19.95269775 C109.2829584 24.03924374 106.08115762 28.13375243 102.88275146 32.23101807 C102.30364014 32.96852295 101.72452881 33.70602783 101.12786865 34.46588135 C100.58033936 35.16697021 100.03281006 35.86805908 99.46868896 36.59039307 C98.99221924 37.1985083 98.51574951 37.80662354 98.02484131 38.4331665 C96.36057231 40.57635504 96.36057231 40.57635504 94.85021973 43.5716095 C92.50775146 46.48101807 92.50775146 46.48101807 89.32266235 47.16648865 C88.06486969 47.13775162 86.80707703 47.10901459 85.51116943 47.07940674 C84.8146376 47.07236725 84.11810577 47.06532776 83.40046692 47.05807495 C81.8904935 47.03973116 80.38063646 47.00798709 78.87118149 46.96437645 C76.47308638 46.89824633 74.07786338 46.87398078 71.67892456 46.86146545 C64.86184696 46.81917789 58.04679792 46.70827277 51.23138428 46.55352783 C47.05718372 46.46167564 42.88521828 46.42428249 38.7100563 46.41881752 C37.12708641 46.40572477 35.5441359 46.37191916 33.96209335 46.31618309 C24.63048363 45.91818288 24.63048363 45.91818288 16.38867188 49.84274292 C13.85771235 52.60786864 11.67709601 55.42830487 9.50775146 58.48101807 C8.15298798 60.01990563 6.78177431 61.54475387 5.38275146 63.04351807 C3.03141905 65.40231351 3.03141905 65.40231351 2.50775146 68.48101807 C11.41775146 72.44101807 11.41775146 72.44101807 20.50775146 76.48101807 C19.43366176 80.77737687 18.47447125 81.91713107 15.50775146 85.04351807 C12.28200114 88.52326448 9.17741074 92.04011893 6.19525146 95.73101807 C2.55143014 100.20881258 -1.09950538 104.67891566 -4.80474854 109.10601807 C-5.30853027 109.72251221 -5.81231201 110.33900635 -6.33135986 110.97418213 C-9.86353076 115.16299345 -9.86353076 115.16299345 -12.20904541 116.34942627 C-15.79212544 116.55593612 -18.58576302 114.90581859 -21.72271729 113.35992432 C-22.43140457 113.02234604 -23.14009186 112.68476776 -23.87025452 112.33695984 C-26.14554245 111.25012197 -28.41262562 110.14727119 -30.67974854 109.04351807 C-32.15513537 108.33474268 -33.63104274 107.62704977 -35.10748291 106.92047119 C-38.0629917 105.50462859 -41.0155769 104.08293055 -43.96636963 102.6572876 C-51.11557316 99.21017224 -58.30525101 95.84841605 -65.49224854 92.48101807 C-65.726277 88.31531133 -65.86722915 84.15130761 -65.99224854 79.98101807 C-66.05927979 78.80797119 -66.12631104 77.63492432 -66.19537354 76.42633057 C-66.38928965 67.79706337 -66.38928965 67.79706337 -63.78570557 63.97735596 C-61.77987645 61.98279554 -59.70246697 60.24183071 -57.49224854 58.48101807 C-56.42369928 57.31764874 -55.37726133 56.13305495 -54.36724854 54.91851807 C-50.85497536 50.83165642 -47.17906219 46.90958211 -43.49224854 42.98101807 C-39.33433134 38.54698707 -35.21619536 34.09978616 -31.25396729 29.48883057 C-29.38929806 27.36368648 -27.47406422 25.28915495 -25.55181885 23.21612549 C-20.63893007 17.91612515 -15.96818008 12.51246853 -11.46490479 6.85601807 C-5.75218407 -0.02187142 -5.75218407 -0.02187142 0 0 Z" fill="#FCFCFB" transform="translate(634.49,289.51)"/>
    </g>
</svg>
